<svg xmlns="http://www.w3.org/2000/svg" width="192" height="130" fill="none" viewBox="0 0 192 130"><path fill="#fff" d="M52.2 129.8c-11.52 0-21-2.1-28.44-6.3-7.44-4.32-13.02-10.02-16.74-17.1C3.3 99.2 1.2 91.16.72 82.28.6 79.04.48 75.38.36 71.3V58.7c.12-4.32.24-8.16.36-11.52.48-8.76 2.64-16.68 6.48-23.76 3.84-7.08 9.48-12.72 16.92-16.92C31.68 2.3 41.04.2 52.2.2c11.28 0 20.64 2.1 28.08 6.3 7.44 4.2 13.08 9.84 16.92 16.92 3.96 7.08 6.18 15 6.66 23.76.12 3.36.18 7.2.18 11.52.12 4.2.12 8.4 0 12.6 0 4.08-.06 7.74-.18 10.98-.6 8.88-2.76 16.92-6.48 24.12-3.6 7.08-9.12 12.78-16.56 17.1-7.44 4.2-16.98 6.3-28.62 6.3Zm0-26.1c6.12 0 10.62-2.04 13.5-6.12 2.88-4.08 4.38-9.48 4.5-16.2.24-5.04.36-10.56.36-16.56 0-6.12-.12-11.64-.36-16.56-.12-6.48-1.62-11.76-4.5-15.84-2.76-4.2-7.26-6.36-13.5-6.48-6.24.12-10.74 2.28-13.5 6.48-2.76 4.08-4.26 9.36-4.5 15.84-.24 4.92-.36 10.44-.36 16.56 0 6 .12 11.52.36 16.56.24 6.72 1.74 12.12 4.5 16.2 2.88 4.08 7.38 6.12 13.5 6.12ZM163.4 128a4.8 4.8 0 0 1-3.24-1.26 4.39 4.39 0 0 1-1.26-3.24V37.82l-24.66 18.9a4.08 4.08 0 0 1-3.42.9 5.06 5.06 0 0 1-2.88-1.98L117.3 41.78a5.1 5.1 0 0 1-.9-3.42 4.35 4.35 0 0 1 2.16-3.06l41.4-32.04A7.34 7.34 0 0 1 164.29 2h22.5c1.32 0 2.4.42 3.24 1.26a4.39 4.39 0 0 1 1.26 3.24v117c0 1.32-.42 2.4-1.26 3.24a4.39 4.39 0 0 1-3.24 1.26h-23.4Z"/></svg>